<svg width="88" height="151" viewBox="0 0 88 151" fill="none" xmlns="http://www.w3.org/2000/svg">
<path d="M21.3895 77.7231C19.5878 77.2374 17.7609 76.8516 15.9168 76.5672C11.9738 75.6729 7.84873 76.8712 4.9941 79.7401C3.14749 81.9532 1.94974 84.6364 1.5341 87.491C-0.257189 96.2463 2.69095 105.299 9.29083 111.31C13.8977 115.888 19.0028 119.932 24.5103 123.367C26.102 124.257 27.1704 125.859 27.3823 127.673C29.0521 133.941 31.1604 140.083 33.6918 146.053C33.967 146.64 34.5043 147.061 35.1391 147.187C46.2196 150.301 57.9279 150.403 69.0607 147.481C71.6387 146.62 71.6387 146.62 72.8147 144.036C77.2541 132.056 80.4372 119.645 82.3127 107.004C84.0803 95.5119 84.837 83.8862 84.5741 72.2612C84.5741 70.2668 84.5741 69.9948 82.3127 69.4056C78.8499 68.3793 75.2705 67.8004 71.6613 67.6832C62.2891 66.9201 52.8796 66.7234 43.4838 67.0939C37.4938 67.2055 31.5276 67.8809 25.6637 69.111C24.2163 69.4056 23.0856 69.9722 21.9097 70.2668C21.3443 70.5388 21.0503 70.8334 21.0503 71.4C21.317 73.4966 21.4304 75.6099 21.3895 77.7231ZM25.1209 117.883H24.8495C15.2836 112.851 8.86116 105.463 8.1375 93.9954C7.9497 91.5811 8.21041 89.1528 8.90639 86.8338C9.53051 84.8196 11.1456 83.2695 13.1805 82.7317C16.4299 82.2238 19.622 83.9343 21.0051 86.9244V90.0973C21.4115 97.1164 22.2575 104.103 23.5379 111.016C23.8093 113.033 24.4199 115.299 25.0078 117.815L25.1209 117.883Z" fill="#ADADAD" stroke="#151515" stroke-width="0.91875"/>
<path d="M21.8438 70.4266C21.8438 70.4266 52.3284 61.1413 84.625 70.4266C84.625 70.3589 57.764 81.1579 21.8438 70.4266Z" stroke="#151515" stroke-width="0.91875"/>
<path d="M72.958 0.149902C75.0687 11.4372 71.9139 23.0721 64.3931 31.7375C61.3422 35.7454 58.2688 39.2551 55.2179 43.263C50.4786 49.4202 47.3273 56.653 46.0428 64.3214C46.0428 65.3177 45.4326 66.8348 45.4326 67.8312C45.4326 65.8159 44.8224 64.3214 44.8224 62.3062C44.6154 53.1966 47.6517 44.3108 53.3874 37.2399C55.8565 33.9137 58.5124 30.731 61.3422 27.707C67.2024 20.6161 71.2029 12.1713 72.9806 3.13884" fill="#EDEDED"/>
<path d="M33.2 55.5587C33.1109 54.5387 32.9064 53.532 32.5902 52.558C32.26 45.0332 34.895 37.6788 39.93 32.0724C42.6895 28.9818 45.1473 25.6351 47.2699 22.0778C49.9707 17.8027 51.8403 13.0571 52.7805 8.08977C52.8934 7.50317 53.2773 4.81838 53.2773 6.53304L53.3902 7.09707C53.6999 8.40978 53.9038 9.74517 54 11.0904C53.939 17.8453 51.5458 24.3721 47.2247 29.5681L39.8849 38.5926C37.2793 42.2535 35.3658 46.3595 34.2388 50.708C34.1187 51.2488 34.0581 51.8011 34.0582 52.355C34.0535 53.489 33.7497 54.6018 33.1774 55.5813L33.2 55.5587Z" fill="#EDEDED"/>
<path d="M66.3215 60.4812C66.3215 60.2542 65.8236 58.3251 65.6652 56.623C65.3343 49.0535 67.9749 41.6554 73.0206 36.0157C75.7858 32.9067 78.2488 29.5401 80.3759 25.9616C83.0825 21.6611 84.956 16.8873 85.8981 11.8905C86.0339 11.3685 86.6676 8.75859 86.4639 10.5969V11.0962C86.7445 12.3535 86.9486 13.6268 87.075 14.909C87.0139 21.704 84.6156 28.2696 80.2854 33.4965L72.9301 42.5746C70.319 46.2572 68.4014 50.3876 67.2721 54.762C67.1517 55.306 67.091 55.8615 67.091 56.4187C67.0504 57.5769 66.8446 58.7233 66.48 59.823L66.3215 60.4812Z" fill="#EDEDED"/>
</svg>
