<svg width="231" height="199" viewBox="0 0 231 199" fill="none" xmlns="http://www.w3.org/2000/svg">
<path d="M228.612 199H2.3876C1.06964 199 0 197.929 0 196.61V12.7491C0 11.4297 1.06964 10.3588 2.3876 10.3588C3.70555 10.3588 4.77519 11.4297 4.77519 12.7491V21.5135H26.1096V4.78078H22.0292C20.7112 4.78078 19.6416 3.70989 19.6416 2.39039C19.6416 1.07089 20.7112 0 22.0292 0H63.4146C64.7325 0 65.8022 1.07089 65.8022 2.39039C65.8022 3.70989 64.7325 4.78078 63.4146 4.78078H59.3342V21.5135H130.092V4.78078H126.011C124.693 4.78078 123.624 3.70989 123.624 2.39039C123.624 1.07089 124.693 0 126.011 0H167.397C168.715 0 169.784 1.07089 169.784 2.39039C169.784 3.70989 168.715 4.78078 167.397 4.78078H163.315V21.5135H226.225V12.7491C226.225 11.4297 227.294 10.3588 228.612 10.3588C229.93 10.3588 231 11.4297 231 12.7491V196.61C231 197.929 229.93 199 228.612 199ZM4.77519 194.219H226.225V174.499H4.77519V194.219ZM4.77519 169.718H226.225V26.2943H163.314V77.7534C163.314 82.1601 164.854 86.4592 167.65 89.8619L207.937 138.906C211.643 143.416 212.397 149.5 209.904 154.781C207.413 160.062 202.241 163.343 196.407 163.343H96.9973C91.1632 163.343 85.9917 160.062 83.499 154.78C81.0076 149.5 81.7621 143.416 85.4676 138.906L101.455 119.444C101.462 119.436 101.469 119.426 101.478 119.419L125.756 89.8631C128.552 86.4604 130.091 82.1613 130.091 77.7546V26.2943H59.333V146.713C59.333 155.883 51.8813 163.344 42.7213 163.344C33.5613 163.344 26.1084 155.883 26.1084 146.713V26.2943H4.77519V169.718ZM108.366 118.557H185.039L163.961 92.8977C160.464 88.6417 158.539 83.2633 158.539 77.7522V26.2943H134.866V77.7534C134.866 83.2633 132.941 88.6428 129.445 92.8989L108.366 118.557ZM30.8848 57.3694H54.559V26.2943H30.8848V57.3694ZM134.866 21.5135H158.539V4.78078H134.866V21.5135ZM30.8848 21.5135H54.559V4.78078H30.8848V21.5135Z" fill="#EAEAEA"/>
</svg>
