<svg width="330" height="160" viewBox="0 0 330 160" fill="none" xmlns="http://www.w3.org/2000/svg">
<path d="M307.549 0.529175H22.4514C10.0718 0.529175 0 10.6009 0 22.9806V137.019C0 149.399 10.0718 159.471 22.4514 159.471H307.549C319.928 159.471 330 149.399 330 137.019V22.9806C330 10.6009 319.928 0.529175 307.549 0.529175ZM319.309 137.019C319.309 143.505 314.033 148.78 307.549 148.78H22.4514C15.9669 148.78 10.6911 143.505 10.6911 137.019V22.9806C10.6911 16.4953 15.9669 11.2203 22.4514 11.2203H307.549C314.033 11.2203 319.309 16.4953 319.309 22.9806V137.019Z" fill="#EAEAEA"/>
<path d="M233.423 114.568H96.5767C93.6245 114.568 91.2311 116.961 91.2311 119.914C91.2311 122.866 93.6245 125.259 96.5767 125.259H233.423C236.375 125.259 238.769 122.866 238.769 119.914C238.769 116.961 236.375 114.568 233.423 114.568Z" fill="#EAEAEA"/>
<path d="M73.7689 114.568H62.365C59.4128 114.568 57.0194 116.961 57.0194 119.914C57.0194 122.866 59.4128 125.259 62.365 125.259H73.7689C76.7211 125.259 79.1145 122.866 79.1145 119.914C79.1145 116.961 76.7211 114.568 73.7689 114.568Z" fill="#EAEAEA"/>
<path d="M39.5572 114.568H28.1533C25.2012 114.568 22.8078 116.961 22.8078 119.914C22.8078 122.866 25.2012 125.259 28.1533 125.259H39.5572C42.5094 125.259 44.9028 122.866 44.9028 119.914C44.9028 116.961 42.5094 114.568 39.5572 114.568Z" fill="#EAEAEA"/>
<path d="M301.847 114.568H290.443C287.491 114.568 285.097 116.961 285.097 119.914C285.097 122.866 287.491 125.259 290.443 125.259H301.847C304.799 125.259 307.192 122.866 307.192 119.914C307.192 116.961 304.799 114.568 301.847 114.568Z" fill="#EAEAEA"/>
<path d="M267.635 114.568H256.231C253.279 114.568 250.886 116.961 250.886 119.914C250.886 122.866 253.279 125.259 256.231 125.259H267.635C270.587 125.259 272.981 122.866 272.981 119.914C272.981 116.961 270.587 114.568 267.635 114.568Z" fill="#EAEAEA"/>
<path d="M301.847 91.7603H279.039C276.087 91.7603 273.693 94.1529 273.693 97.1058C273.693 100.059 276.087 102.451 279.039 102.451H301.847C304.799 102.451 307.192 100.059 307.192 97.1058C307.192 94.1529 304.799 91.7603 301.847 91.7603Z" fill="#EAEAEA"/>
<path d="M261.577 97.1058C261.577 94.1529 259.183 91.7603 256.231 91.7603H244.827C241.875 91.7603 239.482 94.1529 239.482 97.1058C239.482 100.059 241.875 102.451 244.827 102.451H256.231C259.183 102.451 261.577 100.059 261.577 97.1058Z" fill="#EAEAEA"/>
<path d="M210.616 102.451H222.019C224.972 102.451 227.365 100.059 227.365 97.1058C227.365 94.1529 224.972 91.7603 222.019 91.7603H210.616C207.663 91.7603 205.27 94.1529 205.27 97.1058C205.27 100.059 207.663 102.451 210.616 102.451Z" fill="#EAEAEA"/>
<path d="M176.404 102.451H187.808C190.76 102.451 193.153 100.059 193.153 97.1058C193.153 94.1529 190.76 91.7603 187.808 91.7603H176.404C173.452 91.7603 171.058 94.1529 171.058 97.1058C171.058 100.059 173.452 102.451 176.404 102.451Z" fill="#EAEAEA"/>
<path d="M142.192 102.451H153.596C156.548 102.451 158.942 100.059 158.942 97.1058C158.942 94.1529 156.548 91.7603 153.596 91.7603H142.192C139.24 91.7603 136.847 94.1529 136.847 97.1058C136.847 100.059 139.24 102.451 142.192 102.451Z" fill="#EAEAEA"/>
<path d="M107.981 102.451H119.384C122.337 102.451 124.73 100.059 124.73 97.1058C124.73 94.1529 122.337 91.7603 119.384 91.7603H107.981C105.028 91.7603 102.635 94.1529 102.635 97.1058C102.635 100.059 105.028 102.451 107.981 102.451Z" fill="#EAEAEA"/>
<path d="M85.1728 91.7603H73.7689C70.8167 91.7603 68.4233 94.1529 68.4233 97.1058C68.4233 100.059 70.8167 102.451 73.7689 102.451H85.1728C88.125 102.451 90.5184 100.059 90.5184 97.1058C90.5184 94.1529 88.125 91.7603 85.1728 91.7603Z" fill="#EAEAEA"/>
<path d="M50.9611 91.7603H28.1533C25.2012 91.7603 22.8078 94.1529 22.8078 97.1058C22.8078 100.059 25.2012 102.451 28.1533 102.451H50.9611C53.9133 102.451 56.3067 100.059 56.3067 97.1058C56.3067 94.1529 53.9133 91.7603 50.9611 91.7603Z" fill="#EAEAEA"/>
<path d="M301.847 46.1448H279.039C276.087 46.1448 273.693 48.5375 273.693 51.4903C273.693 54.4432 276.087 56.8359 279.039 56.8359H301.847C304.799 56.8359 307.192 54.4432 307.192 51.4903C307.192 48.5375 304.799 46.1448 301.847 46.1448Z" fill="#EAEAEA"/>
<path d="M244.827 56.8359H256.231C259.183 56.8359 261.577 54.4432 261.577 51.4903C261.577 48.5375 259.183 46.1448 256.231 46.1448H244.827C241.875 46.1448 239.482 48.5375 239.482 51.4903C239.482 54.4432 241.875 56.8359 244.827 56.8359Z" fill="#EAEAEA"/>
<path d="M210.616 56.8359H222.019C224.972 56.8359 227.365 54.4432 227.365 51.4903C227.365 48.5375 224.972 46.1448 222.019 46.1448H210.616C207.663 46.1448 205.27 48.5375 205.27 51.4903C205.27 54.4432 207.663 56.8359 210.616 56.8359Z" fill="#EAEAEA"/>
<path d="M176.404 56.8359H187.808C190.76 56.8359 193.153 54.4432 193.153 51.4903C193.153 48.5375 190.76 46.1448 187.808 46.1448H176.404C173.452 46.1448 171.058 48.5375 171.058 51.4903C171.058 54.4432 173.452 56.8359 176.404 56.8359Z" fill="#EAEAEA"/>
<path d="M142.192 56.8359H153.596C156.548 56.8359 158.942 54.4432 158.942 51.4903C158.942 48.5375 156.548 46.1448 153.596 46.1448H142.192C139.24 46.1448 136.847 48.5375 136.847 51.4903C136.847 54.4432 139.24 56.8359 142.192 56.8359Z" fill="#EAEAEA"/>
<path d="M107.981 56.8359H119.384C122.337 56.8359 124.73 54.4432 124.73 51.4903C124.73 48.5375 122.337 46.1448 119.384 46.1448H107.981C105.028 46.1448 102.635 48.5375 102.635 51.4903C102.635 54.4432 105.028 56.8359 107.981 56.8359Z" fill="#EAEAEA"/>
<path d="M73.7689 56.8359H85.1728C88.125 56.8359 90.5184 54.4432 90.5184 51.4903C90.5184 48.5375 88.125 46.1448 85.1728 46.1448H73.7689C70.8167 46.1448 68.4233 48.5375 68.4233 51.4903C68.4233 54.4432 70.8167 56.8359 73.7689 56.8359Z" fill="#EAEAEA"/>
<path d="M28.1533 56.8359H50.9611C53.9133 56.8359 56.3067 54.4432 56.3067 51.4903C56.3067 48.5375 53.9133 46.1448 50.9611 46.1448H28.1533C25.2012 46.1448 22.8078 48.5375 22.8078 51.4903C22.8078 54.4432 25.2012 56.8359 28.1533 56.8359Z" fill="#EAEAEA"/>
<path d="M301.847 68.9525H290.443C287.491 68.9525 285.097 71.3452 285.097 74.2981C285.097 77.251 287.491 79.6437 290.443 79.6437H301.847C304.799 79.6437 307.192 77.251 307.192 74.2981C307.192 71.3452 304.799 68.9525 301.847 68.9525Z" fill="#EAEAEA"/>
<path d="M267.635 68.9525H256.231C253.279 68.9525 250.886 71.3452 250.886 74.2981C250.886 77.251 253.279 79.6437 256.231 79.6437H267.635C270.587 79.6437 272.981 77.251 272.981 74.2981C272.981 71.3452 270.587 68.9525 267.635 68.9525Z" fill="#EAEAEA"/>
<path d="M233.423 68.9525H222.019C219.067 68.9525 216.674 71.3452 216.674 74.2981C216.674 77.251 219.067 79.6437 222.019 79.6437H233.423C236.376 79.6437 238.769 77.251 238.769 74.2981C238.769 71.3452 236.376 68.9525 233.423 68.9525Z" fill="#EAEAEA"/>
<path d="M199.212 68.9525H187.808C184.856 68.9525 182.462 71.3452 182.462 74.2981C182.462 77.251 184.856 79.6437 187.808 79.6437H199.212C202.164 79.6437 204.557 77.251 204.557 74.2981C204.557 71.3452 202.164 68.9525 199.212 68.9525Z" fill="#EAEAEA"/>
<path d="M165 68.9525H153.596C150.644 68.9525 148.251 71.3452 148.251 74.2981C148.251 77.251 150.644 79.6437 153.596 79.6437H165C167.952 79.6437 170.346 77.251 170.346 74.2981C170.346 71.3452 167.952 68.9525 165 68.9525Z" fill="#EAEAEA"/>
<path d="M130.788 68.9525H119.384C116.432 68.9525 114.039 71.3452 114.039 74.2981C114.039 77.251 116.432 79.6437 119.384 79.6437H130.788C133.741 79.6437 136.134 77.251 136.134 74.2981C136.134 71.3452 133.741 68.9525 130.788 68.9525Z" fill="#EAEAEA"/>
<path d="M96.5767 68.9525H85.1728C82.2206 68.9525 79.8272 71.3452 79.8272 74.2981C79.8272 77.251 82.2206 79.6437 85.1728 79.6437H96.5767C99.5289 79.6437 101.922 77.251 101.922 74.2981C101.922 71.3452 99.5289 68.9525 96.5767 68.9525Z" fill="#EAEAEA"/>
<path d="M28.1533 79.6437H62.365C65.3172 79.6437 67.7106 77.251 67.7106 74.2981C67.7106 71.3452 65.3172 68.9525 62.365 68.9525H28.1533C25.2012 68.9525 22.8078 71.3452 22.8078 74.2981C22.8078 77.251 25.2012 79.6437 28.1533 79.6437Z" fill="#EAEAEA"/>
<path d="M301.847 23.3369H290.443C287.491 23.3369 285.097 25.7296 285.097 28.6825C285.097 31.6354 287.491 34.0281 290.443 34.0281H301.847C304.799 34.0281 307.192 31.6354 307.192 28.6825C307.192 25.7296 304.799 23.3369 301.847 23.3369Z" fill="#EAEAEA"/>
<path d="M267.635 23.3369H256.231C253.279 23.3369 250.886 25.7296 250.886 28.6825C250.886 31.6354 253.279 34.0281 256.231 34.0281H267.635C270.587 34.0281 272.981 31.6354 272.981 28.6825C272.981 25.7296 270.587 23.3369 267.635 23.3369Z" fill="#EAEAEA"/>
<path d="M233.423 23.3369H222.019C219.067 23.3369 216.674 25.7296 216.674 28.6825C216.674 31.6354 219.067 34.0281 222.019 34.0281H233.423C236.376 34.0281 238.769 31.6354 238.769 28.6825C238.769 25.7296 236.376 23.3369 233.423 23.3369Z" fill="#EAEAEA"/>
<path d="M187.808 34.0281H199.212C202.164 34.0281 204.557 31.6354 204.557 28.6825C204.557 25.7296 202.164 23.3369 199.212 23.3369H187.808C184.856 23.3369 182.462 25.7296 182.462 28.6825C182.462 31.6354 184.856 34.0281 187.808 34.0281Z" fill="#EAEAEA"/>
<path d="M153.596 34.0281H165C167.952 34.0281 170.346 31.6354 170.346 28.6825C170.346 25.7296 167.952 23.3369 165 23.3369H153.596C150.644 23.3369 148.251 25.7296 148.251 28.6825C148.251 31.6354 150.644 34.0281 153.596 34.0281Z" fill="#EAEAEA"/>
<path d="M119.384 34.0281H130.788C133.741 34.0281 136.134 31.6354 136.134 28.6825C136.134 25.7296 133.741 23.3369 130.788 23.3369H119.384C116.432 23.3369 114.039 25.7296 114.039 28.6825C114.039 31.6354 116.432 34.0281 119.384 34.0281Z" fill="#EAEAEA"/>
<path d="M85.1728 34.0281H96.5767C99.5289 34.0281 101.922 31.6354 101.922 28.6825C101.922 25.7296 99.5289 23.3369 96.5767 23.3369H85.1728C82.2206 23.3369 79.8272 25.7296 79.8272 28.6825C79.8272 31.6354 82.2206 34.0281 85.1728 34.0281Z" fill="#EAEAEA"/>
<path d="M28.1533 34.0281H62.365C65.3172 34.0281 67.7106 31.6354 67.7106 28.6825C67.7106 25.7296 65.3172 23.3369 62.365 23.3369H28.1533C25.2012 23.3369 22.8078 25.7296 22.8078 28.6825C22.8078 31.6354 25.2012 34.0281 28.1533 34.0281Z" fill="#EAEAEA"/>
</svg>
