<svg width="214" height="653" viewBox="0 0 214 653" fill="none" xmlns="http://www.w3.org/2000/svg">
<path d="M95.5229 598.288H92.8208L74.2662 598.475C74.2662 598.475 70.3031 617.314 68.3215 625.148C68.1414 625.707 67.7811 627.013 67.6009 627.946C67.2407 629.251 67.2407 630.743 67.2407 632.049C67.6009 639.137 70.3031 645.292 76.4279 648.463C83.2733 652.007 88.4974 655.365 95.5229 648.463C102.548 641.562 103.629 637.272 100.927 625.521C98.2251 613.77 97.3244 598.661 95.5229 598.288Z" fill="#151515"/>
<path d="M169.922 622.163C157.672 618.06 149.565 600.899 149.565 600.899L128.669 599.594C128.669 599.594 127.588 617.127 127.048 625.894C126.327 637.645 128.309 643.054 135.695 642.308C145.602 641.375 185.774 645.292 192.079 641.002C200.185 635.593 181.27 625.894 169.922 622.163Z" fill="#151515"/>
<path d="M174.61 434.733C175.513 443.468 169.19 489.555 169.19 498.29C169.19 507.024 150.399 600.5 150.399 600.5L128.899 599.757C128.899 599.757 133.777 461.68 133.235 454.99C132.693 448.299 105.772 368.204 105.772 368.204C105.772 368.204 103.784 389.389 103.784 396.079C103.784 402.769 96.5574 597.898 96.5574 597.898H75.0568L44.3416 309.851L41.4508 285.32L157.626 288.294C157.626 288.294 173.526 425.813 174.61 434.733Z" stroke="#151515" stroke-width="0.6"/>
<path d="M188.176 230.637L178.42 239.157L181.492 252.493L185.647 258.42C185.285 258.976 184.382 255.456 188.718 258.049L197.208 257.494L203.712 248.788C203.712 248.788 200.279 208.596 185.105 180.627L188.176 230.637ZM176.253 177.479L175.349 171.922L173.001 171.552L176.253 177.479ZM94.4166 29.4875C99.8362 27.0796 120.792 16.8925 123.863 19.1152C128.56 23.19 131.992 28.5614 133.438 34.6737C134.341 38.9337 137.593 44.1199 138.135 43.379C140.483 40.9712 139.941 50.047 139.941 52.8253C139.219 56.7149 137.593 60.6045 134.883 63.5681C133.076 65.0498 131.27 70.0508 130.367 73.9404C129.463 78.2005 127.657 86.7206 129.283 90.2398C131.089 94.4999 153.129 135.434 172.82 171.737L62.4409 151.363L27.5748 226.932L43.2917 239.898L38.7753 255.271L35.8849 255.827C35.8849 255.827 33.3557 261.939 30.6459 259.161C28.4781 256.938 25.2263 258.049 23.9617 258.605C23.6004 258.79 23.0585 258.79 22.6972 258.79L19.0841 258.049L16.7356 237.675L50.6984 130.433C50.6984 130.433 91.5261 92.8329 93.8746 91.3511C96.2231 89.8694 96.9457 79.8675 94.7779 75.0517C92.4294 70.236 89.9002 65.6055 87.0098 60.975C85.2032 58.1967 83.0354 47.6391 83.0354 43.0086C83.0354 38.3781 85.7452 40.0451 85.7452 40.0451C85.7452 40.0451 88.2744 30.9693 93.694 28.5614C95.6812 27.2649 123.863 19.1152 123.863 19.1152" fill="white"/>
<path d="M94.4166 29.4875C99.8362 27.0796 120.792 16.8925 123.863 19.1152C128.56 23.19 131.992 28.5614 133.438 34.6737C134.341 38.9337 137.593 44.1199 138.135 43.379C140.483 40.9712 139.941 50.047 139.941 52.8253C139.219 56.7149 137.593 60.6045 134.883 63.5681C133.076 65.0498 131.27 70.0508 130.367 73.9404C129.463 78.2005 127.657 86.7206 129.283 90.2398C131.089 94.4999 153.129 135.434 172.82 171.737L62.4409 151.363L27.5748 226.932L43.2917 239.898L38.7753 255.271L35.8849 255.827C35.8849 255.827 33.3557 261.939 30.6459 259.161C28.4781 256.938 25.2263 258.05 23.9617 258.605C23.6004 258.79 23.0585 258.79 22.6972 258.79L19.0841 258.05L16.7356 237.675L50.6984 130.433C50.6984 130.433 91.5261 92.8329 93.8746 91.3511C96.2231 89.8694 96.9457 79.8675 94.7779 75.0517C92.4294 70.236 89.9002 65.6055 87.0098 60.975C85.2033 58.1967 83.0354 47.6391 83.0354 43.0086C83.0354 38.3781 85.7452 40.0451 85.7452 40.0451C85.7452 40.0451 88.2744 30.9693 93.694 28.5614C95.6812 27.2649 123.863 19.1152 123.863 19.1152M188.176 230.637L178.42 239.157L181.492 252.493L185.647 258.42C185.285 258.976 184.382 255.456 188.718 258.05L197.208 257.494L203.712 248.788C203.712 248.788 200.279 208.596 185.105 180.627L188.176 230.637ZM176.253 177.479L175.349 171.922L173.001 171.552L176.253 177.479Z" stroke="#151515" stroke-width="0.6"/>
<path d="M39.4395 121.482C37.6373 127.981 6.99903 188.701 5.55724 193.157C4.11544 197.613 -1.65176 215.068 1.59229 234.008C4.83634 252.948 18.7136 257.404 21.0566 257.404C22.3181 257.404 19.9752 247.563 19.4345 241.064C19.2543 238.65 21.2368 232.708 21.7775 230.294C22.6786 226.766 25.5622 227.694 25.5622 224.538C25.5622 218.596 39.9802 197.985 45.3869 186.472C48.9914 178.797 54.306 175.621 61.3305 176.943C52.1432 239.744 47.5496 271.145 47.5496 271.145C47.5496 271.145 47.1892 290.085 50.6134 291.942C53.8575 293.613 92.6058 308.839 101.617 312.367C102.518 312.738 103.6 312.181 104.14 311.253L109.907 294.355C109.907 294.17 110.088 293.984 110.268 294.17C110.448 294.17 110.448 294.355 110.448 294.355L115.855 312.738C116.035 313.667 117.116 314.224 118.018 314.038L165.777 303.454C165.777 303.454 165.056 212.654 165.957 197.428C166.678 182.573 164.876 174.217 167.579 178.302C170.463 182.759 194.253 207.083 194.253 213.954C194.072 217.853 195.875 221.381 198.938 223.609L197.677 257.033C197.677 257.033 211.194 241.621 212.455 232.894C213.717 224.166 214.258 219.524 210.293 210.797C206.328 202.07 184.34 122.782 184.34 122.782C184.34 122.782 182.178 113.127 165.957 108.113C149.737 103.1 137.662 95.6721 134.778 95.8578C131.895 96.0435 122.884 113.498 118.919 118.511C117.116 120.74 117.477 121.854 115.134 125.196C113.872 126.867 111.529 127.239 109.907 125.939C109.547 125.567 109.187 125.382 109.006 124.825C107.745 122.782 106.663 120.74 105.582 118.697C103.78 114.983 89.9025 94.001 89.9025 94.001C89.9025 94.001 56.9213 102.543 51.5146 106.256C46.1078 109.97 41.2418 114.983 39.4395 121.482Z" fill="white" stroke="#151515" stroke-width="0.6"/>
<path d="M124.222 19.3598C124.222 19.3598 96.2884 28.9417 91.2423 33.5483C87.9984 36.4966 86.1962 40.1819 86.1962 40.1819C86.1962 40.1819 83.493 39.0763 83.493 43.1301C83.493 43.1301 82.4117 40.3661 81.5106 38.7078C80.6095 37.0494 77.1854 28.2046 80.4293 21.2025C83.6732 14.2004 87.638 10.1465 89.2599 9.04095C90.8819 7.93535 100.253 -0.356613 109.444 0.0119189C118.635 0.380451 124.582 6.82976 126.204 8.30388C128.007 9.77801 131.25 12.542 133.413 13.0948C135.576 13.8319 140.982 21.2025 141.343 26.7305C141.703 32.2585 139.721 44.2357 139.721 44.2357C139.721 44.2357 139.54 42.5773 138.459 43.4987C137.378 44.42 134.314 38.5235 133.413 34.2854C132.512 30.0473 124.222 19.3598 124.222 19.3598Z" fill="black"/>
<g opacity="0.07">
<path d="M132.701 96.5176C132.526 95.9616 135.84 98.556 132.003 95.591C126.596 91.5142 129.038 74.0948 129.038 74.0948C127.119 78.5423 123.631 82.0633 119.27 83.9164C112.293 86.6961 110.2 84.6576 120.84 91.1435C131.48 97.6294 125.898 99.8532 125.201 108.378" fill="white"/>
</g>
<path opacity="0.07" d="M88.7322 306.432C88.7322 306.432 75.8756 376.491 82.5755 404.478C92.7159 446.921 78.0485 504.376 78.0485 531.992C78.0485 549.785 84.9295 599.456 85.2917 619.473C85.4728 625.59 89.6376 637.266 86.5592 640.046C85.1106 641.158 76.962 638.563 72.435 636.339C70.081 635.227 68.6324 632.633 68.9945 630.038L71.7107 617.991L75.5134 602.237L48.8947 345.91C48.8947 345.91 40.2029 288.825 45.092 288.638C49.9812 288.454 88.7322 306.432 88.7322 306.432Z" fill="black"/>
<path d="M65.0915 176.61L106.284 163.672L108.075 283.806L70.4644 298.591L65.0915 176.61Z" fill="white" stroke="#151515" stroke-width="0.6"/>
<path d="M105.925 163.672L154.281 178.417V296.379L107.716 283.477L105.925 163.672Z" fill="white" stroke="#151515" stroke-width="0.6"/>
<path d="M155.356 178.417L202.637 163.672L196.091 225.971L184.452 234.634C183.179 235.555 182.452 236.846 182.27 238.32L181.906 240.532C181.724 241.638 181.906 242.744 182.27 243.85L184.27 248.826C184.998 250.485 186.089 251.959 187.725 252.881L194.454 256.567L194.09 281.818L155.356 296.379V178.417Z" fill="#EDEDED" stroke="#151515" stroke-width="0.6"/>
<path d="M64.0169 177.06L18.8847 162.566L25.1531 226.301L36.4361 235.22C37.5107 236.149 38.4062 237.449 38.5853 238.936L38.9435 241.166C39.1226 242.281 38.9435 243.581 38.5853 244.51L36.7943 249.713C36.0779 251.385 35.0034 252.872 33.3915 253.801L26.944 257.517L27.3022 284.46L69.3898 299.697L64.0169 177.06Z" fill="#EDEDED" stroke="#151515" stroke-width="0.6"/>
<path d="M105.388 163.119C106.258 163.01 106.795 163.01 107 163.119C107.205 163.229 107.205 163.597 107 164.225L109.149 284.215L108.228 283.845L107.154 284.215L105.388 163.119Z" fill="#EDEDED"/>
</svg>
