<svg width="311" height="659" viewBox="0 0 311 659" fill="none" xmlns="http://www.w3.org/2000/svg">
<g filter="url(#filter0_d_14_400)">
<path d="M174.63 87.5412L222.808 78.3141C222.808 78.3141 226.82 58.2575 225.615 54.6547C224.411 51.0518 223.28 43.2282 216.461 40.8193C209.643 38.4104 200.458 19.2231 177.594 34.4724C154.731 49.7217 166.974 67.8931 166.974 67.8931L174.63 87.5412Z" fill="black"/>
<path d="M208.564 47.2919C208.564 47.2919 184.591 56.5504 179.134 58.8126C173.677 61.0749 170.755 67.6627 170.755 67.6627C170.755 67.6627 168.074 66.0707 168.074 70.6162C168.074 75.1617 170.305 85.4047 171.928 88.0125C174.72 92.4336 177.262 97.0071 179.542 101.712C181.763 106.404 180.956 116.144 178.684 117.506C176.411 118.867 135.921 155.273 135.921 155.273L102.249 120.344L61.9155 80.545L44.8438 44.9877C44.8438 44.9877 28.5682 18.3433 26.4106 15.2013C9.65316 -9.495 5.74657 2.12002 4.84586 11.6508C4.58402 14.4263 5.45332 25.0149 7.19191 27.2039L85.8159 126.701L103.621 132.985L135.868 155.22L147.693 175.235L259.612 195.344L274.159 253.681L287.775 176.597L292.163 161.065C292.271 160.681 292.615 160.411 293.013 160.399C293.412 160.387 293.771 160.636 293.902 161.012L296.405 168.187C297.452 167.296 295.284 170.69 296.405 168.187L301.526 172.303C305.1 175.181 306.657 179.884 305.506 184.326L288.319 250.853C288.319 250.853 217.613 123.538 214.031 115.998C212.419 112.615 214.136 104.477 215.079 100.287C215.938 96.4436 217.812 91.6468 219.635 90.2748C221.457 88.9028 224.631 82.5454 224.631 79.8014C224.631 77.0574 225.165 68.4063 222.819 70.7C222.18 71.3284 219.059 66.4164 218.148 62.3212C216.649 56.413 213.289 51.1436 208.564 47.2919Z" fill="white" stroke="#151515" stroke-width="0.6"/>
<path d="M134.653 303.555C134.653 303.555 118.493 436.316 117.498 444.8C116.503 453.283 122.986 497.67 122.986 506.153C122.986 514.637 138.832 605.043 138.832 605.043L163.885 603.912C163.885 603.912 158.899 470.732 159.392 464.249C159.884 457.766 187.324 380.462 187.324 380.462C187.324 380.462 189.325 400.916 189.325 407.399C189.325 413.882 196.918 602.205 196.918 602.205H218.755L249.809 324.848L249.212 319.506L134.653 303.555Z" stroke="#151515" stroke-width="0.6"/>
<path d="M199.316 151.136C198.587 152.128 197.413 152.695 196.181 152.649C194.95 152.603 193.822 151.95 193.168 150.905C191.888 148.985 190.733 146.984 189.712 144.915C187.932 141.364 174.212 121.046 174.212 121.046C174.212 121.046 147.326 119.108 141.451 116.532C135.397 113.882 129.794 115.421 122.881 113.337C116.681 111.473 100.196 102.047 96.017 100.026C85.0618 94.705 78.5578 88.1591 61.9574 68.6053C49.9968 54.4871 45.8807 43.0082 43.8489 41.3744C36.6536 35.5407 18.985 47.3337 18.985 47.3337C18.985 47.3337 50.1329 106.791 60.533 116.574C71.9386 127.267 94.2784 142.192 111.465 146.119C124.756 149.167 138.696 176.157 139.963 181.215C143.556 196.004 132.108 292.234 132.108 292.234C132.108 292.234 131.668 310.468 135.25 312.248C138.392 313.819 177.029 328.608 185.921 332.012C186.398 332.192 186.928 332.172 187.39 331.955C187.852 331.738 188.206 331.342 188.372 330.86L194.048 314.584C194.093 314.44 194.227 314.341 194.378 314.341C194.529 314.341 194.663 314.44 194.708 314.584L200.133 332.389C200.444 333.268 201.357 333.783 202.27 333.593L249.809 323.361C249.809 323.361 249.149 235.646 249.966 220.994C250.762 206.634 248.918 198.643 251.505 202.518C254.344 206.865 260.67 251.335 263.885 257.179C266.472 261.903 274.128 264.134 280.192 265.181C284.972 266.025 289.835 264.227 292.917 260.478L299.505 252.445C301.359 250.183 300.552 238.641 300.301 235.688C299.516 225.979 299.599 212.164 300.626 205.608C301.966 197.156 280.37 208.478 280.37 199.125C280.37 183.75 268.2 148.905 268.2 148.905C268.2 148.905 265.969 139.563 249.966 134.672C233.962 129.781 221.907 122.721 218.87 122.753C216.021 122.753 207.067 139.772 203.066 144.663C201.296 146.894 201.61 147.92 199.316 151.136Z" fill="white" stroke="#151515" stroke-width="0.6"/>
<path d="M216.199 601.912L197.19 602.1C197.19 602.1 193.273 620.261 191.231 627.834C191.095 628.315 190.697 629.551 190.424 630.441C190.129 631.743 190.002 633.077 190.047 634.411C190.435 641.292 193.001 647.115 199.117 650.226C205.852 653.64 211.047 656.782 218.21 650.226C225.374 643.669 226.327 639.543 223.573 628.158C220.818 616.774 219.938 602.362 218.242 601.975" fill="#151515"/>
<path d="M116.042 625.404C130.066 621.508 139.45 604.928 139.45 604.928L163.434 603.682C163.434 603.682 164.681 620.439 165.372 629.049C166.273 640.381 164.021 645.439 155.412 644.832C144.1 644.025 97.9336 647.66 90.6965 643.617C81.2704 638.38 102.909 629.048 116.042 625.404Z" fill="#151515"/>
<path opacity="0.07" d="M191.147 366.962C188.057 376.011 176.003 393.543 168.284 403.985C160.565 414.427 136.256 436.736 137.795 463.862C139.335 490.988 155.778 560.626 155.778 566.889C155.778 573.152 149.63 602.76 144.98 611.83C140.33 620.9 138.141 637.375 140.456 637.375C144.843 637.243 149.205 636.664 153.474 635.647C157.465 634.599 162.963 633.552 165.204 632.505C166.786 631.772 167.121 626.65 167.121 626.65C167.277 624.455 167.025 622.249 166.377 620.146C165.854 618.795 163.895 611.893 163.822 609.903C162.848 584.4 160.68 525.414 161.12 521.287C161.916 513.558 155.789 474.649 161.382 455.473C166.974 436.296 191.147 366.962 191.147 366.962Z" fill="black"/>
<path opacity="0.07" d="M133.041 318.532L128.935 350.351C128.935 350.351 133.124 356.918 134.172 351.398C135.219 345.879 144.059 335.374 138.728 327.906C133.397 320.439 133.041 318.532 133.041 318.532Z" fill="black"/>
<path opacity="0.07" d="M174.096 121.349C175.144 121.119 168.86 122.837 174.379 121.014C183.805 117.872 179.888 100.067 179.888 100.067C179.888 100.067 180.862 106.739 189.817 109.42C198.594 112.038 201.191 110.101 187.722 116.458C174.473 122.742 181.302 124.91 182.203 133.08" fill="black"/>
<path opacity="0.07" d="M140.602 196.035L132.108 293.899C132.108 293.899 132.213 310.164 135.25 312.615C138.288 315.066 147.819 316.637 150.018 318.208C152.217 319.779 175.447 327.466 169.383 314.49C168.022 311.599 136.602 293.983 150.625 275.654C164.649 257.326 162.146 231.718 155.412 213.913C148.677 196.109 140.498 169.517 140.498 169.517L140.602 196.035Z" fill="black"/>
<path opacity="0.07" d="M281.585 201.911C281.585 201.911 288.791 204.414 294.939 201.848C304.134 198.015 298.217 230.786 300.05 241.511C301.443 249.576 292.833 267.318 280.15 265.212C267.467 263.107 263.246 261.819 260.575 245.041C258.543 232.2 278.233 228.503 278.233 216.281C278.233 204.058 281.585 201.911 281.585 201.911Z" fill="black"/>
</g>
<defs>
<filter id="filter0_d_14_400" x="0.500061" y="0.119385" width="309.68" height="661.934" filterUnits="userSpaceOnUse" color-interpolation-filters="sRGB">
<feFlood flood-opacity="0" result="BackgroundImageFix"/>
<feColorMatrix in="SourceAlpha" type="matrix" values="0 0 0 0 0 0 0 0 0 0 0 0 0 0 0 0 0 0 127 0" result="hardAlpha"/>
<feOffset dy="4"/>
<feGaussianBlur stdDeviation="2"/>
<feComposite in2="hardAlpha" operator="out"/>
<feColorMatrix type="matrix" values="0 0 0 0 0 0 0 0 0 0 0 0 0 0 0 0 0 0 0.25 0"/>
<feBlend mode="normal" in2="BackgroundImageFix" result="effect1_dropShadow_14_400"/>
<feBlend mode="normal" in="SourceGraphic" in2="effect1_dropShadow_14_400" result="shape"/>
</filter>
</defs>
</svg>
