<svg width="91" height="105" viewBox="0 0 91 105" fill="none" xmlns="http://www.w3.org/2000/svg">
<path d="M46.0904 100.262L67.1125 104.325V69.2373H89.975V37.8162C89.975 37.8162 88.8717 22.2976 69.694 19.3399C55.0265 17.0826 32.3577 19.0614 22.4278 19.2724C18.0566 19.3652 14.2623 20.766 10.4975 22.8082C7.87395 24.2301 1.46875 32.2045 1.46875 35.8458V69.2373L45.6398 69.6044L46.0904 100.262Z" fill="#D6D6D6" stroke="#151515" stroke-width="0.91875"/>
<path d="M1.59473 69.3995L40.0563 69.7188V41.1048C40.0709 37.0947 38.9545 33.1618 36.8352 29.7584C34.0511 25.3417 29.1211 20.5678 20.7603 20.4165C5.10534 20.1223 1.46875 36.6209 1.46875 36.6209L1.59473 69.3995Z" fill="#5C5C5C" stroke="#151515"/>
<path opacity="0.1" d="M47.4062 69.4126L67.3125 77.6813V69.4126H47.4062Z" fill="#5C5C5C"/>
<path d="M42.8125 1.42505H58.7375V37.8688H55.6026L55.3523 11.2833L42.8125 11.7055V1.42505Z" fill="black" stroke="#151515" stroke-width="0.91875"/>
</svg>
