<svg width="59" height="126" viewBox="0 0 59 126" fill="none" xmlns="http://www.w3.org/2000/svg">
<path d="M17.2685 23.5313L31.9664 22.4392L34.9894 61.0548H21.5469L17.2685 23.5313Z" fill="white"/>
<path d="M17.2685 23.5313L31.9664 22.4392L34.9894 61.0548H21.5469L17.2685 23.5313Z" stroke="#979797" stroke-width="0.30625"/>
<path d="M17.2685 23.5313L31.9664 22.4392L34.9894 61.0548H21.5469L17.2685 23.5313Z" stroke="#151515" stroke-width="0.91875"/>
<path d="M19.4941 30.455L25.6051 29.9729L25.6774 30.8905L19.5665 31.3725L19.4941 30.455Z" fill="black"/>
<path d="M19.9505 33.1493L23.8997 32.8378L23.9721 33.7554L20.0229 34.0669L19.9505 33.1493Z" fill="black"/>
<path d="M20.1534 35.688L24.1026 35.3765L24.1749 36.2941L20.2257 36.6056L20.1534 35.688Z" fill="black"/>
<path d="M20.8377 41.4155L26.9487 40.9335L27.0211 41.8511L20.9101 42.3331L20.8377 41.4155Z" fill="black"/>
<path d="M20.3213 38.4897L24.2705 38.1782L24.3429 39.0958L20.3937 39.4073L20.3213 38.4897Z" fill="black"/>
<path d="M21.2464 44.2495L25.1957 43.938L25.268 44.8556L21.3188 45.1671L21.2464 44.2495Z" fill="black"/>
<path d="M21.5169 47.3702L25.4661 47.0587L25.5385 47.9763L21.5893 48.2878L21.5169 47.3702Z" fill="black"/>
<path d="M21.923 53.0129L28.034 52.5309L28.1064 53.4485L21.9954 53.9305L21.923 53.0129Z" fill="black"/>
<path d="M21.8271 50.1571L25.7763 49.8456L25.8487 50.7632L21.8995 51.0747L21.8271 50.1571Z" fill="black"/>
<path d="M22.4082 58.1351L26.3574 57.8236L26.4298 58.7412L22.4806 59.0527L22.4082 58.1351Z" fill="black"/>
<path d="M22.4086 60.6676L26.3578 60.3561L26.4302 61.2737L22.4809 61.5852L22.4086 60.6676Z" fill="black"/>
<path d="M22.2398 55.4247L26.189 55.1132L26.2614 56.0307L22.3122 56.3422L22.2398 55.4247Z" fill="black"/>
<path d="M8.50038 61.0548H46.674C47.6878 61.0558 48.6481 61.5108 49.2921 62.2954C49.9362 63.08 50.1967 64.112 50.0023 65.1091L38.5796 122.33C38.2648 123.914 36.8807 125.056 35.2697 125.061H18.9227C17.2841 125.063 15.8785 123.89 15.5835 122.275L5.15743 65.0649C4.97604 64.0717 5.24473 63.0491 5.89067 62.2743C6.53661 61.4994 7.49291 61.0526 8.50038 61.0548Z" fill="#D9D9D9" stroke="#151515" stroke-width="0.91875"/>
<path opacity="0.1" d="M34.7859 124.797H20.1779C20.1779 124.797 31.6875 121.923 33.9425 106.543C36.1975 91.1626 47.7695 67.2642 49.8008 64.2286C49.7421 64.523 49.7715 64.7879 49.7128 65.0823C47.4358 76.4593 45.3898 85.5366 45.1002 87.8952C44.3338 94.1834 41.3088 102.687 38.6469 120.006C38.6469 120.109 38.6029 120.256 38.5955 120.437C38.4269 123.859 36.6155 124.797 34.7859 124.797Z" fill="black"/>
<path d="M1.39913 28.0868L11.4225 60.7903H19.3845L8.67645 25.3486L1.39913 28.0868Z" stroke="#151515" stroke-width="0.91875"/>
<path d="M1.39913 17.1598V27.9935L8.80485 25.2677L3.12601 16.356L1.39913 17.1598Z" fill="white"/>
<path d="M1.39913 17.1598V27.9935L8.80485 25.2677L3.12601 16.356L1.39913 17.1598Z" stroke="#979797" stroke-width="0.30625"/>
<path d="M1.39913 17.1598V27.9935L8.80485 25.2677L3.12601 16.356L1.39913 17.1598Z" stroke="#151515" stroke-width="0.91875"/>
<path d="M3.28671 15.8371L1.426 14.3296C1.3125 14.2376 1.14595 14.2551 1.05399 14.3686C1.01538 14.4162 0.994535 14.4758 0.995015 14.5371L1.01418 16.9883L3.28671 15.8371Z" fill="black"/>
<path d="M41.0166 61.0548L50.0653 30.7388L41.0166 29.0515L36.5763 61.0548H41.0166Z" stroke="#151515" stroke-width="0.91875"/>
<path d="M41.0726 28.7792L42.3411 23.4972L50.8588 25.0223L50.1167 30.3739" fill="white"/>
<path d="M41.0726 28.7792L42.3411 23.4972L50.8588 25.0223L50.1167 30.3739" stroke="#979797" stroke-width="0.30625"/>
<path d="M41.0726 28.7792L42.3411 23.4972L50.8588 25.0223L50.1167 30.3739" stroke="#151515" stroke-width="0.91875"/>
<path d="M44.5286 1.28003C44.5286 1.28003 47.4265 5.13361 43.1665 10.0442C38.9065 14.9547 38.7145 16.019 42.1218 23.473L50.723 25.0841C50.723 25.0841 57.5338 23.4987 57.9731 16.8485C58.4567 9.82396 52.3657 3.98854 44.5286 1.28003Z" stroke="#151515" stroke-width="0.91875"/>
<path d="M56.6776 11.0662C56.6776 11.0662 56.6776 24.7143 46.3624 24.2805L56.6776 11.0662Z" fill="#E5E5E5"/>
</svg>
