<svg width="172" height="67" viewBox="0 0 172 67" fill="none" xmlns="http://www.w3.org/2000/svg">
<path d="M109.259 46.7688H77.9688C77.6788 46.7688 77.4438 47.0038 77.4438 47.2938C77.4438 47.5837 77.6788 47.8188 77.9688 47.8188H109.259C109.549 47.8188 109.784 47.5837 109.784 47.2938C109.784 47.0038 109.549 46.7688 109.259 46.7688Z" fill="#F4F4F4"/>
<path d="M109.259 48.6588H77.9688C77.6788 48.6588 77.4438 48.8939 77.4438 49.1838C77.4438 49.4738 77.6788 49.7088 77.9688 49.7088H109.259C109.549 49.7088 109.784 49.4738 109.784 49.1838C109.784 48.8939 109.549 48.6588 109.259 48.6588Z" fill="#F4F4F4"/>
<path d="M109.259 50.5488H77.9688C77.6788 50.5488 77.4438 50.7839 77.4438 51.0738C77.4438 51.3638 77.6788 51.5988 77.9688 51.5988H109.259C109.549 51.5988 109.784 51.3638 109.784 51.0738C109.784 50.7839 109.549 50.5488 109.259 50.5488Z" fill="#F4F4F4"/>
<path d="M113.669 56.6388H85.1087C84.8188 56.6388 84.5837 56.8738 84.5837 57.1638C84.5837 57.4537 84.8188 57.6888 85.1087 57.6888H113.669C113.959 57.6888 114.194 57.4537 114.194 57.1638C114.194 56.8738 113.959 56.6388 113.669 56.6388Z" fill="#F4F4F4"/>
<path d="M113.669 58.5288H85.1087C84.8188 58.5288 84.5837 58.7639 84.5837 59.0538C84.5837 59.3438 84.8188 59.5788 85.1087 59.5788H113.669C113.959 59.5788 114.194 59.3438 114.194 59.0538C114.194 58.7639 113.959 58.5288 113.669 58.5288Z" fill="#F4F4F4"/>
<path d="M113.669 60.4188H85.1087C84.8188 60.4188 84.5837 60.6539 84.5837 60.9438C84.5837 61.2338 84.8188 61.4688 85.1087 61.4688H113.669C113.959 61.4688 114.194 61.2338 114.194 60.9438C114.194 60.6539 113.959 60.4188 113.669 60.4188Z" fill="#F4F4F4"/>
<path d="M35.8591 44.9828C35.8591 44.9828 31.5971 45.3161 31.5971 49.5078C31.5971 53.6996 35.9995 53.9092 35.9995 53.9092L110.213 54.1188V52.8613H77.0892C77.0892 52.8613 76.041 53.0709 76.2506 51.3941V46.9928C76.227 46.4702 76.6315 46.0273 77.1542 46.0035H77.2485C78.7349 45.9868 109.793 46.364 109.793 46.364V44.6873L35.8591 44.9828Z" fill="#D9D9D9" stroke="#151515" stroke-width="0.91875"/>
<path d="M38.8869 53.9575C38.8869 53.9575 34.2625 54.4423 34.2625 59.0611C34.2625 63.0141 37.5038 63.9192 38.4307 64.0981C38.5693 64.1244 38.71 64.1376 38.8511 64.1376L114.806 64.225L114.741 62.6812L85.2881 62.598C85.2881 62.598 83.3963 62.5751 83.6065 60.7463V56.837C83.6065 56.837 83.3963 55.3972 85.0779 55.3972C86.5493 55.3972 114.295 55.7031 114.295 55.7031V53.7328L38.8869 53.9575Z" fill="#D9D9D9" stroke="#151515" stroke-width="0.91875"/>
<path d="M81.7778 47.075H84.3002C85.0231 47.5752 85.5442 48.3121 85.7716 49.1556C86.192 50.612 85.7716 51.0281 86.6124 52.6925C87.1084 53.6724 87.6907 54.3216 88.0838 54.9811C88.1657 55.1205 88.2729 56.0692 88.294 56.2294L88.5042 58.7261L87.4532 58.1019L86.4022 59.1422C86.4022 59.1422 86.4022 55.8133 85.9818 55.1892C85.5614 54.565 83.9029 52.2764 84.09 50.612C84.3002 48.7395 83.6696 48.1153 81.7778 47.075Z" fill="#EDEDED"/>
<path d="M127.056 0.831299H123.687C121.658 0.831299 120.012 2.47665 120.012 4.5063V61.7751C120.012 63.8047 121.658 65.4501 123.687 65.4501H127.056C129.086 65.4501 130.731 63.8047 130.731 61.7751V4.5063C130.731 2.47665 129.086 0.831299 127.056 0.831299Z" fill="#D9D9D9" stroke="#151515" stroke-width="0.91875"/>
<path d="M7.92499 0.525024H4.55624C2.52659 0.525024 0.881241 2.17038 0.881241 4.20002V61.4688C0.881241 63.4984 2.52659 65.1438 4.55624 65.1438H7.92499C9.95464 65.1438 11.6 63.4984 11.6 61.4688V4.20002C11.6 2.17038 9.95464 0.525024 7.92499 0.525024Z" fill="#D9D9D9" stroke="#151515" stroke-width="0.91875"/>
<path d="M143.7 25.9967L145.81 24.7788C147.567 23.764 149.815 24.3663 150.83 26.124L169.584 58.6078C170.599 60.3655 169.997 62.6131 168.239 63.6279L166.13 64.8458C164.372 65.8606 162.125 65.2583 161.11 63.5006L142.355 31.0168C141.34 29.2591 141.943 27.0115 143.7 25.9967Z" fill="#D9D9D9" stroke="#151515" stroke-width="0.91875"/>
<path d="M137.775 10.0188H134.406C132.377 10.0188 130.731 11.6642 130.731 13.6938V61.7751C130.731 63.8047 132.377 65.4501 134.406 65.4501H137.775C139.805 65.4501 141.45 63.8047 141.45 61.7751V13.6938C141.45 11.6642 139.805 10.0188 137.775 10.0188Z" fill="#D9D9D9" stroke="#151515" stroke-width="0.91875"/>
<path d="M18.6438 2.97504H15.275C13.2454 2.97504 11.6 4.62039 11.6 6.65004V61.775C11.6 63.8047 13.2454 65.45 15.275 65.45H18.6438C20.6734 65.45 22.3188 63.8047 22.3188 61.775V6.65004C22.3188 4.62039 20.6734 2.97504 18.6438 2.97504Z" fill="#D9D9D9" stroke="#151515" stroke-width="0.91875"/>
</svg>
